<svg width="17" height="15" viewBox="0 0 17 15" fill="none" xmlns="http://www.w3.org/2000/svg">
<path d="M8.25 3C10.32 3 12 4.68 12 6.75C12 7.2375 11.9025 7.695 11.73 8.1225L13.92 10.3125C15.0525 9.3675 15.945 8.145 16.4925 6.75C15.195 3.4575 11.9925 1.125 8.2425 1.125C7.1925 1.125 6.1875 1.3125 5.2575 1.65L6.8775 3.27C7.305 3.0975 7.7625 3 8.25 3ZM0.75 0.9525L2.46 2.6625L2.805 3.0075C1.56 3.975 0.585 5.265 0 6.75C1.2975 10.0425 4.5 12.375 8.25 12.375C9.4125 12.375 10.5225 12.15 11.535 11.745L11.85 12.06L14.0475 14.25L15 13.2975L1.7025 0L0.75 0.9525ZM4.8975 5.1L6.06 6.2625C6.0225 6.42 6 6.585 6 6.75C6 7.995 7.005 9 8.25 9C8.415 9 8.58 8.9775 8.7375 8.94L9.9 10.1025C9.3975 10.35 8.8425 10.5 8.25 10.5C6.18 10.5 4.5 8.82 4.5 6.75C4.5 6.1575 4.65 5.6025 4.8975 5.1ZM8.13 4.515L10.4925 6.8775L10.5075 6.7575C10.5075 5.5125 9.5025 4.5075 8.2575 4.5075L8.13 4.515Z" fill="#999999"/>
</svg>
