<svg width="70" height="39" viewBox="0 0 70 39" fill="none" xmlns="http://www.w3.org/2000/svg">
<path d="M3.18182 31.8182H66.8182V38.1818H3.18182V31.8182ZM6.84091 18.9318L9.54545 14.2227L12.25 18.9318L16.3864 16.5455L13.6818 11.8364H19.0909V7.06364H13.6818L16.3864 2.38636L12.25 0L9.54545 4.67727L6.84091 0L2.70455 2.38636L5.40909 7.06364H0V11.8364H5.40909L2.70455 16.5455L6.84091 18.9318ZM28.1591 16.5455L32.2955 18.9318L35 14.2227L37.7045 18.9318L41.8409 16.5455L39.1364 11.8364H44.5455V7.06364H39.1364L41.8409 2.38636L37.7045 0L35 4.67727L32.2955 0L28.1591 2.38636L30.8636 7.06364H25.4545V11.8364H30.8636L28.1591 16.5455ZM70 7.06364H64.5909L67.2955 2.38636L63.1591 0L60.4545 4.67727L57.75 0L53.6136 2.38636L56.3182 7.06364H50.9091V11.8364H56.3182L53.6136 16.5455L57.75 18.9318L60.4545 14.2227L63.1591 18.9318L67.2955 16.5455L64.5909 11.8364H70V7.06364Z" fill="#3167C0"/>
</svg>
