<svg width="99" height="99" viewBox="0 0 99 99" fill="none" xmlns="http://www.w3.org/2000/svg">
<path d="M95.0651 55.8534L76.9815 45.3615C76.1881 44.9022 75.2895 44.6593 74.3757 44.6565C73.4621 44.6541 72.5654 44.892 71.7755 45.3468L53.6677 55.8808C52.8771 56.336 52.2217 56.9922 51.767 57.7839C51.3123 58.5752 51.0745 59.4739 51.0773 60.3895L51.0532 81.4154C51.0564 82.3303 51.2994 83.2297 51.7586 84.0235C52.2175 84.8173 52.8764 85.478 53.6688 85.9388L71.7524 96.4307C72.5458 96.8897 73.4443 97.1329 74.3579 97.1354C75.2717 97.1382 76.1685 96.8999 76.9581 96.4451L95.0661 85.9111C95.8568 85.4559 96.5122 84.7997 96.9669 84.0084C97.4215 83.217 97.6594 82.3183 97.6562 81.4028L97.6807 60.3765C97.6775 59.462 97.4345 58.5626 96.9753 57.7684C96.5161 56.9746 95.8575 56.3142 95.0651 55.8534Z" stroke="#737373" stroke-width="2" stroke-linecap="round" stroke-linejoin="round"/>
<path d="M69.9247 12.1968L51.8407 1.70482C51.0477 1.24563 50.1492 1.00258 49.2353 1.00002C48.3218 0.997459 47.425 1.23549 46.6351 1.69022L28.5274 12.2243C27.7367 12.6795 27.0809 13.3357 26.6263 14.1272C26.1716 14.9186 25.9338 15.8172 25.9369 16.7328L25.9128 37.759C25.9156 38.6736 26.159 39.573 26.6182 40.3668C27.0771 41.1609 27.736 41.8213 28.528 42.2821L46.6121 52.774C47.4051 53.2334 48.3036 53.4762 49.2175 53.479C50.1314 53.4815 51.0278 53.2435 51.8177 52.7887L69.9258 42.2547C70.716 41.7996 71.3718 41.143 71.8265 40.3517C72.2812 39.5603 72.519 38.6616 72.5158 37.7461L72.5399 16.72C72.5371 15.8053 72.2937 14.9059 71.8349 14.112C71.3757 13.3181 70.7171 12.6576 69.9247 12.1968Z" stroke="#737373" stroke-width="2" stroke-linecap="round" stroke-linejoin="round"/>
<path d="M45.0119 55.8703L26.9283 45.3784C26.1349 44.919 25.2364 44.6762 24.3225 44.6734C23.4089 44.6709 22.5122 44.9088 21.7224 45.3636L3.61447 55.8976C2.82391 56.3528 2.16834 57.009 1.71364 57.8007C1.25894 58.592 1.02116 59.4907 1.02417 60.4063L1 81.4322C1.00304 82.3471 1.24626 83.2465 1.70533 84.0403C2.16439 84.8341 2.82314 85.4949 3.61545 85.9556L21.6992 96.4476C22.4925 96.9066 23.391 97.1498 24.3047 97.1522C25.2185 97.1547 26.1153 96.9167 26.9049 96.4619L45.013 85.9279C45.8036 85.4728 46.459 84.8165 46.9137 84.0252C47.3684 83.2339 47.6062 82.3352 47.603 81.4196L47.6275 60.3933C47.6243 59.4788 47.3809 58.5794 46.9221 57.7853C46.4629 56.9915 45.8043 56.331 45.0119 55.8703Z" stroke="#737373" stroke-width="2" stroke-linecap="round" stroke-linejoin="round"/>
<path d="M24.105 92.9577L24.142 71.9023" stroke="#737373"/>
<path d="M22.5468 69.6939L4.28735 59.0701" stroke="#737373"/>
<path d="M43.7978 59.198L25.5396 69.8208" stroke="#737373"/>
<path d="M73.6921 92.9577L73.7292 71.9023" stroke="#737373"/>
<path d="M72.1342 69.6939L53.8745 59.0701" stroke="#737373"/>
<path d="M93.385 59.198L75.1267 69.8208" stroke="#737373"/>
<path d="M49.2478 49.0921L49.2848 28.0366" stroke="#737373"/>
<path d="M47.6896 25.8284L29.4299 15.2046" stroke="#737373"/>
<path d="M68.9406 15.3325L50.6824 25.9555" stroke="#737373"/>
<path d="M17.4022 74.8865L13.1345 72.0843C12.2897 71.5401 11.3506 71.22 10.5238 71.1948C9.69695 71.1698 9.05007 71.4411 8.72556 71.9499C8.401 72.4584 8.42534 73.1627 8.79323 73.907C9.16109 74.6517 9.84235 75.3757 10.6872 75.9203L15.2376 78.8523C16.0824 79.3966 16.7636 80.1205 17.1315 80.8652C17.4994 81.6098 17.5237 82.3138 17.1992 82.8223C16.8746 83.3311 16.2278 83.6027 15.401 83.5775C14.5741 83.5522 13.635 83.2321 12.7902 82.6879L7.48657 79.1095" stroke="#14A52B" stroke-opacity="0.71" stroke-width="2" stroke-linecap="round" stroke-linejoin="round"/>
<path d="M12.9304 69.031L12.6414 85.6753" stroke="#14A52B" stroke-opacity="0.71" stroke-width="2" stroke-linecap="round" stroke-linejoin="round"/>
<path d="M30.1168 21.2743C30.1168 19.9343 31.551 19.0888 32.7149 19.7427L42.5779 25.2841C43.1299 25.5943 43.4718 26.1801 43.4718 26.8157V44.891C43.4718 46.2357 42.0282 47.0807 40.8643 46.4172L31.0013 40.7947C30.4548 40.483 30.1168 39.9002 30.1168 39.2685V28.1058H29.7676H30.1168V21.2743Z" stroke="#3757A8" stroke-opacity="0.8" stroke-width="2"/>
<path d="M34.6643 23.4621L33.2703 22.5469C32.9944 22.3691 32.6878 22.2645 32.4175 22.2563C32.1476 22.2481 31.9363 22.3368 31.8302 22.5029C31.7244 22.669 31.7324 22.899 31.8525 23.1422C31.9726 23.3854 32.1951 23.6219 32.471 23.7997L33.9572 24.7574C34.2334 24.9352 34.4558 25.1717 34.576 25.4149C34.6961 25.6581 34.7041 25.8881 34.598 26.0542C34.4922 26.2204 34.2809 26.3091 34.0106 26.3009C33.7407 26.2926 33.4337 26.1881 33.1578 26.0103L31.4258 24.8415" stroke="#3757A8" stroke-linecap="round" stroke-linejoin="round"/>
<path d="M33.2037 21.5496L33.1094 26.9861" stroke="#3757A8" stroke-linecap="round" stroke-linejoin="round"/>
<path d="M36.0757 31.9266L31.2637 29.4407" stroke="#3757A8" stroke-opacity="0.8" stroke-linecap="round" stroke-linejoin="round"/>
<path d="M40.6005 36.1322L31.2837 31.3186" stroke="#3757A8" stroke-opacity="0.8" stroke-linecap="round" stroke-linejoin="round"/>
<path d="M40.6005 38.5888L31.2837 33.7751" stroke="#3757A8" stroke-opacity="0.8" stroke-linecap="round" stroke-linejoin="round"/>
<path d="M40.6005 41.0451L31.2837 36.2314" stroke="#3757A8" stroke-opacity="0.8" stroke-linecap="round" stroke-linejoin="round"/>
<path d="M63.3523 85.2758C66.6321 84.8108 68.8303 81.157 68.2628 77.1154C67.6954 73.0735 64.5766 70.1738 61.2972 70.6388C58.0175 71.1038 55.8189 74.7572 56.3867 78.7992C56.9541 82.8411 60.0729 85.7408 63.3523 85.2758Z" stroke="#A4733B" stroke-opacity="0.72" stroke-width="2" stroke-linecap="round" stroke-linejoin="round"/>
<path d="M61.3879 73.6572V78.2245L64.6129 79.7984" stroke="#A4733B" stroke-opacity="0.72" stroke-width="2" stroke-linecap="round" stroke-linejoin="round"/>
</svg>
