<svg width="268" height="99" viewBox="0 0 268 99" fill="none" xmlns="http://www.w3.org/2000/svg">
<path d="M114.291 37.633C114.291 37.035 114.157 36.5583 113.888 36.203C113.619 35.839 113.221 35.657 112.692 35.657C112.519 35.657 112.358 35.6657 112.211 35.683C112.064 35.6917 111.942 35.7047 111.847 35.722V39.219C111.968 39.297 112.124 39.362 112.315 39.414C112.514 39.466 112.714 39.492 112.913 39.492C113.832 39.492 114.291 38.8723 114.291 37.633ZM116.267 37.581C116.267 38.1097 116.202 38.5907 116.072 39.024C115.942 39.4573 115.751 39.83 115.5 40.142C115.249 40.454 114.937 40.6967 114.564 40.87C114.191 41.0433 113.762 41.13 113.277 41.13C113.008 41.13 112.757 41.104 112.523 41.052C112.289 41 112.064 40.9263 111.847 40.831V43.405H109.91V34.396C110.083 34.344 110.283 34.2963 110.508 34.253C110.733 34.201 110.967 34.1577 111.21 34.123C111.461 34.0883 111.713 34.0623 111.964 34.045C112.224 34.019 112.471 34.006 112.705 34.006C113.268 34.006 113.771 34.0927 114.213 34.266C114.655 34.4307 115.028 34.669 115.331 34.981C115.634 35.2843 115.864 35.657 116.02 36.099C116.185 36.541 116.267 37.035 116.267 37.581ZM120.486 41.13C119.922 41.1213 119.463 41.0607 119.108 40.948C118.761 40.8353 118.484 40.6793 118.276 40.48C118.076 40.272 117.938 40.025 117.86 39.739C117.79 39.4443 117.756 39.115 117.756 38.751V31.224L119.693 30.912V38.361C119.693 38.5343 119.706 38.6903 119.732 38.829C119.758 38.9677 119.805 39.0847 119.875 39.18C119.953 39.2753 120.061 39.3533 120.2 39.414C120.338 39.4747 120.525 39.5137 120.759 39.531L120.486 41.13ZM124.672 39.648C124.863 39.648 125.045 39.6437 125.218 39.635C125.392 39.6263 125.53 39.6133 125.634 39.596V38.127C125.556 38.1097 125.439 38.0923 125.283 38.075C125.127 38.0577 124.984 38.049 124.854 38.049C124.672 38.049 124.499 38.062 124.334 38.088C124.178 38.1053 124.04 38.1443 123.918 38.205C123.797 38.2657 123.702 38.348 123.632 38.452C123.563 38.556 123.528 38.686 123.528 38.842C123.528 39.1453 123.628 39.3577 123.827 39.479C124.035 39.5917 124.317 39.648 124.672 39.648ZM124.516 33.98C125.088 33.98 125.565 34.045 125.946 34.175C126.328 34.305 126.631 34.4913 126.856 34.734C127.09 34.9767 127.255 35.2713 127.35 35.618C127.446 35.9647 127.493 36.3503 127.493 36.775V40.805C127.216 40.8657 126.83 40.935 126.336 41.013C125.842 41.0997 125.244 41.143 124.542 41.143C124.1 41.143 123.697 41.104 123.333 41.026C122.978 40.948 122.67 40.8223 122.41 40.649C122.15 40.467 121.951 40.233 121.812 39.947C121.674 39.661 121.604 39.31 121.604 38.894C121.604 38.4953 121.682 38.1573 121.838 37.88C122.003 37.6027 122.22 37.3817 122.488 37.217C122.757 37.0523 123.065 36.9353 123.411 36.866C123.758 36.788 124.118 36.749 124.49 36.749C124.742 36.749 124.963 36.762 125.153 36.788C125.353 36.8053 125.513 36.8313 125.634 36.866V36.684C125.634 36.3547 125.535 36.0903 125.335 35.891C125.136 35.6917 124.789 35.592 124.295 35.592C123.966 35.592 123.641 35.618 123.32 35.67C123 35.7133 122.722 35.7783 122.488 35.865L122.241 34.305C122.354 34.2703 122.493 34.2357 122.657 34.201C122.831 34.1577 123.017 34.123 123.216 34.097C123.416 34.0623 123.624 34.0363 123.84 34.019C124.066 33.993 124.291 33.98 124.516 33.98ZM129.18 32.459L131.117 32.147V34.162H133.444V35.774H131.117V38.179C131.117 38.5863 131.186 38.9113 131.325 39.154C131.472 39.3967 131.763 39.518 132.196 39.518C132.404 39.518 132.616 39.5007 132.833 39.466C133.058 39.4227 133.262 39.3663 133.444 39.297L133.717 40.805C133.483 40.9003 133.223 40.9827 132.937 41.052C132.651 41.1213 132.3 41.156 131.884 41.156C131.355 41.156 130.918 41.0867 130.571 40.948C130.224 40.8007 129.947 40.6013 129.739 40.35C129.531 40.09 129.384 39.778 129.297 39.414C129.219 39.05 129.18 38.647 129.18 38.205V32.459ZM137.38 39.648C137.571 39.648 137.753 39.6437 137.926 39.635C138.1 39.6263 138.238 39.6133 138.342 39.596V38.127C138.264 38.1097 138.147 38.0923 137.991 38.075C137.835 38.0577 137.692 38.049 137.562 38.049C137.38 38.049 137.207 38.062 137.042 38.088C136.886 38.1053 136.748 38.1443 136.626 38.205C136.505 38.2657 136.41 38.348 136.34 38.452C136.271 38.556 136.236 38.686 136.236 38.842C136.236 39.1453 136.336 39.3577 136.535 39.479C136.743 39.5917 137.025 39.648 137.38 39.648ZM137.224 33.98C137.796 33.98 138.273 34.045 138.654 34.175C139.036 34.305 139.339 34.4913 139.564 34.734C139.798 34.9767 139.963 35.2713 140.058 35.618C140.154 35.9647 140.201 36.3503 140.201 36.775V40.805C139.924 40.8657 139.538 40.935 139.044 41.013C138.55 41.0997 137.952 41.143 137.25 41.143C136.808 41.143 136.405 41.104 136.041 41.026C135.686 40.948 135.378 40.8223 135.118 40.649C134.858 40.467 134.659 40.233 134.52 39.947C134.382 39.661 134.312 39.31 134.312 38.894C134.312 38.4953 134.39 38.1573 134.546 37.88C134.711 37.6027 134.928 37.3817 135.196 37.217C135.465 37.0523 135.773 36.9353 136.119 36.866C136.466 36.788 136.826 36.749 137.198 36.749C137.45 36.749 137.671 36.762 137.861 36.788C138.061 36.8053 138.221 36.8313 138.342 36.866V36.684C138.342 36.3547 138.243 36.0903 138.043 35.891C137.844 35.6917 137.497 35.592 137.003 35.592C136.674 35.592 136.349 35.618 136.028 35.67C135.708 35.7133 135.43 35.7783 135.196 35.865L134.949 34.305C135.062 34.2703 135.201 34.2357 135.365 34.201C135.539 34.1577 135.725 34.123 135.924 34.097C136.124 34.0623 136.332 34.0363 136.548 34.019C136.774 33.993 136.999 33.98 137.224 33.98ZM144.917 30.912C145.281 30.912 145.615 30.951 145.918 31.029C146.221 31.0983 146.455 31.1677 146.62 31.237L146.243 32.784C146.07 32.706 145.879 32.6497 145.671 32.615C145.472 32.5717 145.285 32.55 145.112 32.55C144.878 32.55 144.679 32.5847 144.514 32.654C144.358 32.7147 144.232 32.8013 144.137 32.914C144.05 33.0267 143.985 33.161 143.942 33.317C143.907 33.473 143.89 33.642 143.89 33.824V34.162H146.282V35.774H143.89V41H141.953V33.798C141.953 32.914 142.2 32.212 142.694 31.692C143.197 31.172 143.938 30.912 144.917 30.912ZM153.732 37.568C153.732 38.1053 153.654 38.5993 153.498 39.05C153.342 39.492 153.116 39.8733 152.822 40.194C152.527 40.506 152.172 40.7487 151.756 40.922C151.348 41.0953 150.889 41.182 150.378 41.182C149.875 41.182 149.416 41.0953 149 40.922C148.592 40.7487 148.241 40.506 147.947 40.194C147.652 39.8733 147.422 39.492 147.258 39.05C147.093 38.5993 147.011 38.1053 147.011 37.568C147.011 37.0307 147.093 36.541 147.258 36.099C147.431 35.657 147.665 35.28 147.96 34.968C148.263 34.656 148.618 34.4133 149.026 34.24C149.442 34.0667 149.892 33.98 150.378 33.98C150.872 33.98 151.322 34.0667 151.73 34.24C152.146 34.4133 152.501 34.656 152.796 34.968C153.09 35.28 153.32 35.657 153.485 36.099C153.649 36.541 153.732 37.0307 153.732 37.568ZM151.756 37.568C151.756 36.97 151.634 36.502 151.392 36.164C151.158 35.8173 150.82 35.644 150.378 35.644C149.936 35.644 149.593 35.8173 149.351 36.164C149.108 36.502 148.987 36.97 148.987 37.568C148.987 38.166 149.108 38.6427 149.351 38.998C149.593 39.3447 149.936 39.518 150.378 39.518C150.82 39.518 151.158 39.3447 151.392 38.998C151.634 38.6427 151.756 38.166 151.756 37.568ZM159.353 35.878C159.18 35.8347 158.976 35.7913 158.742 35.748C158.508 35.696 158.257 35.67 157.988 35.67C157.867 35.67 157.72 35.683 157.546 35.709C157.382 35.7263 157.256 35.748 157.169 35.774V41H155.232V34.526C155.579 34.4047 155.986 34.292 156.454 34.188C156.931 34.0753 157.46 34.019 158.04 34.019C158.144 34.019 158.27 34.0277 158.417 34.045C158.565 34.0537 158.712 34.071 158.859 34.097C159.007 34.1143 159.154 34.1403 159.301 34.175C159.449 34.201 159.574 34.2357 159.678 34.279L159.353 35.878ZM164.474 37.373C164.474 36.749 164.391 36.307 164.227 36.047C164.071 35.787 163.798 35.657 163.408 35.657C163.286 35.657 163.161 35.6657 163.031 35.683C162.901 35.6917 162.775 35.7047 162.654 35.722V41H160.717V34.396C160.881 34.3527 161.072 34.3093 161.289 34.266C161.514 34.214 161.748 34.1707 161.991 34.136C162.242 34.0927 162.498 34.0623 162.758 34.045C163.018 34.019 163.273 34.006 163.525 34.006C164.019 34.006 164.417 34.071 164.721 34.201C165.033 34.3223 165.288 34.4697 165.488 34.643C165.765 34.4437 166.081 34.2877 166.437 34.175C166.801 34.0623 167.134 34.006 167.438 34.006C167.984 34.006 168.43 34.084 168.777 34.24C169.132 34.3873 169.414 34.5997 169.622 34.877C169.83 35.1543 169.973 35.4837 170.051 35.865C170.129 36.2463 170.168 36.671 170.168 37.139V41H168.231V37.373C168.231 36.749 168.148 36.307 167.984 36.047C167.828 35.787 167.555 35.657 167.165 35.657C167.061 35.657 166.913 35.683 166.723 35.735C166.541 35.787 166.389 35.852 166.268 35.93C166.328 36.1293 166.367 36.3417 166.385 36.567C166.402 36.7837 166.411 37.0177 166.411 37.269V41H164.474V37.373ZM174.54 39.648C174.73 39.648 174.912 39.6437 175.086 39.635C175.259 39.6263 175.398 39.6133 175.502 39.596V38.127C175.424 38.1097 175.307 38.0923 175.151 38.075C174.995 38.0577 174.852 38.049 174.722 38.049C174.54 38.049 174.366 38.062 174.202 38.088C174.046 38.1053 173.907 38.1443 173.786 38.205C173.664 38.2657 173.569 38.348 173.5 38.452C173.43 38.556 173.396 38.686 173.396 38.842C173.396 39.1453 173.495 39.3577 173.695 39.479C173.903 39.5917 174.184 39.648 174.54 39.648ZM174.384 33.98C174.956 33.98 175.432 34.045 175.814 34.175C176.195 34.305 176.498 34.4913 176.724 34.734C176.958 34.9767 177.122 35.2713 177.218 35.618C177.313 35.9647 177.361 36.3503 177.361 36.775V40.805C177.083 40.8657 176.698 40.935 176.204 41.013C175.71 41.0997 175.112 41.143 174.41 41.143C173.968 41.143 173.565 41.104 173.201 41.026C172.845 40.948 172.538 40.8223 172.278 40.649C172.018 40.467 171.818 40.233 171.68 39.947C171.541 39.661 171.472 39.31 171.472 38.894C171.472 38.4953 171.55 38.1573 171.706 37.88C171.87 37.6027 172.087 37.3817 172.356 37.217C172.624 37.0523 172.932 36.9353 173.279 36.866C173.625 36.788 173.985 36.749 174.358 36.749C174.609 36.749 174.83 36.762 175.021 36.788C175.22 36.8053 175.38 36.8313 175.502 36.866V36.684C175.502 36.3547 175.402 36.0903 175.203 35.891C175.003 35.6917 174.657 35.592 174.163 35.592C173.833 35.592 173.508 35.618 173.188 35.67C172.867 35.7133 172.59 35.7783 172.356 35.865L172.109 34.305C172.221 34.2703 172.36 34.2357 172.525 34.201C172.698 34.1577 172.884 34.123 173.084 34.097C173.283 34.0623 173.491 34.0363 173.708 34.019C173.933 33.993 174.158 33.98 174.384 33.98Z" fill="#232939"/>
<path d="M115.456 21.144C115.984 21.144 116.416 21.104 116.752 21.024C117.104 20.928 117.384 20.808 117.592 20.664C117.8 20.504 117.944 20.32 118.024 20.112C118.104 19.904 118.144 19.672 118.144 19.416C118.144 18.872 117.888 18.424 117.376 18.072C116.864 17.704 115.984 17.312 114.736 16.896C114.192 16.704 113.648 16.488 113.104 16.248C112.56 15.992 112.072 15.68 111.64 15.312C111.208 14.928 110.856 14.472 110.584 13.944C110.312 13.4 110.176 12.744 110.176 11.976C110.176 11.208 110.32 10.52 110.608 9.912C110.896 9.288 111.304 8.76 111.832 8.328C112.36 7.896 113 7.568 113.752 7.344C114.504 7.104 115.352 6.984 116.296 6.984C117.416 6.984 118.384 7.104 119.2 7.344C120.016 7.584 120.688 7.848 121.216 8.136L120.136 11.088C119.672 10.848 119.152 10.64 118.576 10.464C118.016 10.272 117.336 10.176 116.536 10.176C115.64 10.176 114.992 10.304 114.592 10.56C114.208 10.8 114.016 11.176 114.016 11.688C114.016 11.992 114.088 12.248 114.232 12.456C114.376 12.664 114.576 12.856 114.832 13.032C115.104 13.192 115.408 13.344 115.744 13.488C116.096 13.616 116.48 13.752 116.896 13.896C117.76 14.216 118.512 14.536 119.152 14.856C119.792 15.16 120.32 15.52 120.736 15.936C121.168 16.352 121.488 16.84 121.696 17.4C121.904 17.96 122.008 18.64 122.008 19.44C122.008 20.992 121.464 22.2 120.376 23.064C119.288 23.912 117.648 24.336 115.456 24.336C114.72 24.336 114.056 24.288 113.464 24.192C112.872 24.112 112.344 24.008 111.88 23.88C111.432 23.752 111.04 23.616 110.704 23.472C110.384 23.328 110.112 23.192 109.888 23.064L110.944 20.088C111.44 20.36 112.048 20.608 112.768 20.832C113.504 21.04 114.4 21.144 115.456 21.144ZM131.585 17.304C131.585 16.152 131.433 15.336 131.129 14.856C130.841 14.376 130.337 14.136 129.617 14.136C129.393 14.136 129.161 14.152 128.921 14.184C128.681 14.2 128.449 14.224 128.225 14.256V24H124.649V11.808C124.953 11.728 125.305 11.648 125.705 11.568C126.121 11.472 126.553 11.392 127.001 11.328C127.465 11.248 127.937 11.192 128.417 11.16C128.897 11.112 129.369 11.088 129.833 11.088C130.745 11.088 131.481 11.208 132.041 11.448C132.617 11.672 133.089 11.944 133.457 12.264C133.969 11.896 134.553 11.608 135.209 11.4C135.881 11.192 136.497 11.088 137.057 11.088C138.065 11.088 138.889 11.232 139.529 11.52C140.185 11.792 140.705 12.184 141.089 12.696C141.473 13.208 141.737 13.816 141.881 14.52C142.025 15.224 142.097 16.008 142.097 16.872V24H138.521V17.304C138.521 16.152 138.369 15.336 138.065 14.856C137.777 14.376 137.273 14.136 136.553 14.136C136.361 14.136 136.089 14.184 135.737 14.28C135.401 14.376 135.121 14.496 134.897 14.64C135.009 15.008 135.081 15.4 135.113 15.816C135.145 16.216 135.161 16.648 135.161 17.112V24H131.585V17.304ZM150.168 21.504C150.52 21.504 150.856 21.496 151.176 21.48C151.496 21.464 151.752 21.44 151.944 21.408V18.696C151.8 18.664 151.584 18.632 151.296 18.6C151.008 18.568 150.744 18.552 150.504 18.552C150.168 18.552 149.848 18.576 149.544 18.624C149.256 18.656 149 18.728 148.776 18.84C148.552 18.952 148.376 19.104 148.248 19.296C148.12 19.488 148.056 19.728 148.056 20.016C148.056 20.576 148.24 20.968 148.608 21.192C148.992 21.4 149.512 21.504 150.168 21.504ZM149.88 11.04C150.936 11.04 151.816 11.16 152.52 11.4C153.224 11.64 153.784 11.984 154.2 12.432C154.632 12.88 154.936 13.424 155.112 14.064C155.288 14.704 155.376 15.416 155.376 16.2V23.64C154.864 23.752 154.152 23.88 153.24 24.024C152.328 24.184 151.224 24.264 149.928 24.264C149.112 24.264 148.368 24.192 147.696 24.048C147.04 23.904 146.472 23.672 145.992 23.352C145.512 23.016 145.144 22.584 144.888 22.056C144.632 21.528 144.504 20.88 144.504 20.112C144.504 19.376 144.648 18.752 144.936 18.24C145.24 17.728 145.64 17.32 146.136 17.016C146.632 16.712 147.2 16.496 147.84 16.368C148.48 16.224 149.144 16.152 149.832 16.152C150.296 16.152 150.704 16.176 151.056 16.224C151.424 16.256 151.72 16.304 151.944 16.368V16.032C151.944 15.424 151.76 14.936 151.392 14.568C151.024 14.2 150.384 14.016 149.472 14.016C148.864 14.016 148.264 14.064 147.672 14.16C147.08 14.24 146.568 14.36 146.136 14.52L145.68 11.64C145.888 11.576 146.144 11.512 146.448 11.448C146.768 11.368 147.112 11.304 147.48 11.256C147.848 11.192 148.232 11.144 148.632 11.112C149.048 11.064 149.464 11.04 149.88 11.04ZM166.218 14.544C165.898 14.464 165.522 14.384 165.09 14.304C164.658 14.208 164.194 14.16 163.698 14.16C163.474 14.16 163.202 14.184 162.882 14.232C162.578 14.264 162.346 14.304 162.186 14.352V24H158.61V12.048C159.25 11.824 160.002 11.616 160.866 11.424C161.746 11.216 162.722 11.112 163.794 11.112C163.986 11.112 164.218 11.128 164.49 11.16C164.762 11.176 165.034 11.208 165.306 11.256C165.578 11.288 165.85 11.336 166.122 11.4C166.394 11.448 166.626 11.512 166.818 11.592L166.218 14.544ZM168.615 8.232L172.191 7.656V11.376H176.487V14.352H172.191V18.792C172.191 19.544 172.319 20.144 172.575 20.592C172.847 21.04 173.383 21.264 174.183 21.264C174.567 21.264 174.959 21.232 175.359 21.168C175.775 21.088 176.151 20.984 176.487 20.856L176.991 23.64C176.559 23.816 176.079 23.968 175.551 24.096C175.023 24.224 174.375 24.288 173.607 24.288C172.631 24.288 171.823 24.16 171.183 23.904C170.543 23.632 170.031 23.264 169.647 22.8C169.263 22.32 168.991 21.744 168.831 21.072C168.687 20.4 168.615 19.656 168.615 18.84V8.232ZM190.948 24.216C190.036 24.216 189.124 24.184 188.212 24.12C187.316 24.072 186.38 23.944 185.404 23.736V7.608C186.172 7.464 187.012 7.36 187.924 7.296C188.836 7.216 189.684 7.176 190.468 7.176C191.524 7.176 192.492 7.256 193.372 7.416C194.268 7.56 195.036 7.816 195.676 8.184C196.316 8.552 196.812 9.04 197.164 9.648C197.532 10.24 197.716 10.976 197.716 11.856C197.716 13.184 197.076 14.232 195.796 15C196.852 15.4 197.572 15.944 197.956 16.632C198.34 17.32 198.532 18.096 198.532 18.96C198.532 20.704 197.892 22.016 196.612 22.896C195.348 23.776 193.46 24.216 190.948 24.216ZM189.052 16.752V21.048C189.324 21.08 189.62 21.104 189.94 21.12C190.26 21.136 190.612 21.144 190.996 21.144C192.116 21.144 193.02 20.984 193.708 20.664C194.396 20.344 194.74 19.752 194.74 18.888C194.74 18.12 194.452 17.576 193.876 17.256C193.3 16.92 192.476 16.752 191.404 16.752H189.052ZM189.052 13.896H190.876C192.028 13.896 192.852 13.752 193.348 13.464C193.844 13.16 194.092 12.68 194.092 12.024C194.092 11.352 193.836 10.88 193.324 10.608C192.812 10.336 192.06 10.2 191.068 10.2C190.748 10.2 190.404 10.208 190.036 10.224C189.668 10.224 189.34 10.24 189.052 10.272V13.896ZM212.065 23.568C211.457 23.744 210.673 23.904 209.713 24.048C208.753 24.208 207.745 24.288 206.689 24.288C205.617 24.288 204.721 24.144 204.001 23.856C203.297 23.568 202.737 23.168 202.321 22.656C201.905 22.128 201.609 21.504 201.433 20.784C201.257 20.064 201.169 19.272 201.169 18.408V11.376H204.745V17.976C204.745 19.128 204.897 19.96 205.201 20.472C205.505 20.984 206.073 21.24 206.905 21.24C207.161 21.24 207.433 21.232 207.721 21.216C208.009 21.184 208.265 21.152 208.489 21.12V11.376H212.065V23.568ZM218.47 17.592C218.47 18.696 218.718 19.584 219.214 20.256C219.71 20.928 220.446 21.264 221.422 21.264C221.742 21.264 222.038 21.256 222.31 21.24C222.582 21.208 222.806 21.176 222.982 21.144V14.64C222.758 14.496 222.462 14.376 222.094 14.28C221.742 14.184 221.382 14.136 221.014 14.136C219.318 14.136 218.47 15.288 218.47 17.592ZM226.558 23.592C226.238 23.688 225.87 23.784 225.454 23.88C225.038 23.96 224.598 24.032 224.134 24.096C223.686 24.16 223.222 24.208 222.742 24.24C222.278 24.288 221.83 24.312 221.398 24.312C220.358 24.312 219.43 24.16 218.614 23.856C217.798 23.552 217.11 23.12 216.55 22.56C215.99 21.984 215.558 21.296 215.254 20.496C214.966 19.68 214.822 18.768 214.822 17.76C214.822 16.736 214.95 15.816 215.206 15C215.462 14.168 215.83 13.464 216.31 12.888C216.79 12.312 217.374 11.872 218.062 11.568C218.766 11.264 219.566 11.112 220.462 11.112C220.958 11.112 221.398 11.16 221.782 11.256C222.182 11.352 222.582 11.488 222.982 11.664V5.952L226.558 5.376V23.592ZM232.955 17.28C232.955 19.28 233.763 20.28 235.379 20.28C235.747 20.28 236.091 20.232 236.411 20.136C236.731 20.04 237.003 19.928 237.227 19.8V14.088C237.051 14.056 236.843 14.032 236.603 14.016C236.363 13.984 236.083 13.968 235.763 13.968C234.819 13.968 234.115 14.28 233.651 14.904C233.187 15.528 232.955 16.32 232.955 17.28ZM240.803 22.416C240.803 24.48 240.275 26.008 239.219 27C238.179 28.008 236.563 28.512 234.371 28.512C233.603 28.512 232.835 28.44 232.067 28.296C231.299 28.168 230.587 27.992 229.931 27.768L230.555 24.768C231.115 24.992 231.699 25.168 232.307 25.296C232.931 25.424 233.635 25.488 234.419 25.488C235.443 25.488 236.163 25.264 236.579 24.816C237.011 24.368 237.227 23.792 237.227 23.088V22.632C236.843 22.808 236.443 22.944 236.027 23.04C235.627 23.12 235.187 23.16 234.707 23.16C232.963 23.16 231.627 22.648 230.699 21.624C229.771 20.584 229.307 19.136 229.307 17.28C229.307 16.352 229.451 15.512 229.739 14.76C230.027 13.992 230.443 13.336 230.987 12.792C231.547 12.248 232.227 11.832 233.027 11.544C233.827 11.24 234.731 11.088 235.739 11.088C236.171 11.088 236.611 11.112 237.059 11.16C237.523 11.192 237.979 11.24 238.427 11.304C238.875 11.368 239.299 11.448 239.699 11.544C240.115 11.624 240.483 11.712 240.803 11.808V22.416ZM243.557 17.784C243.557 16.664 243.725 15.688 244.061 14.856C244.413 14.008 244.869 13.304 245.429 12.744C245.989 12.184 246.629 11.76 247.349 11.472C248.085 11.184 248.837 11.04 249.605 11.04C251.397 11.04 252.813 11.592 253.853 12.696C254.893 13.784 255.413 15.392 255.413 17.52C255.413 17.728 255.405 17.96 255.389 18.216C255.373 18.456 255.357 18.672 255.341 18.864H247.229C247.309 19.6 247.653 20.184 248.261 20.616C248.869 21.048 249.685 21.264 250.709 21.264C251.365 21.264 252.005 21.208 252.629 21.096C253.269 20.968 253.789 20.816 254.189 20.64L254.669 23.544C254.477 23.64 254.221 23.736 253.901 23.832C253.581 23.928 253.221 24.008 252.821 24.072C252.437 24.152 252.021 24.216 251.573 24.264C251.125 24.312 250.677 24.336 250.229 24.336C249.093 24.336 248.101 24.168 247.253 23.832C246.421 23.496 245.725 23.04 245.165 22.464C244.621 21.872 244.213 21.176 243.941 20.376C243.685 19.576 243.557 18.712 243.557 17.784ZM251.957 16.416C251.941 16.112 251.885 15.816 251.789 15.528C251.709 15.24 251.573 14.984 251.381 14.76C251.205 14.536 250.973 14.352 250.685 14.208C250.413 14.064 250.069 13.992 249.653 13.992C249.253 13.992 248.909 14.064 248.621 14.208C248.333 14.336 248.093 14.512 247.901 14.736C247.709 14.96 247.557 15.224 247.445 15.528C247.349 15.816 247.277 16.112 247.229 16.416H251.957ZM258.052 8.232L261.628 7.656V11.376H265.924V14.352H261.628V18.792C261.628 19.544 261.756 20.144 262.012 20.592C262.284 21.04 262.82 21.264 263.62 21.264C264.004 21.264 264.396 21.232 264.796 21.168C265.212 21.088 265.588 20.984 265.924 20.856L266.428 23.64C265.996 23.816 265.516 23.968 264.988 24.096C264.46 24.224 263.812 24.288 263.044 24.288C262.068 24.288 261.26 24.16 260.62 23.904C259.98 23.632 259.468 23.264 259.084 22.8C258.7 22.32 258.428 21.744 258.268 21.072C258.124 20.4 258.052 19.656 258.052 18.84V8.232Z" fill="#232939"/>
<path d="M95.0651 55.8534L76.9815 45.3615C76.1881 44.9022 75.2895 44.6593 74.3757 44.6565C73.4621 44.6541 72.5654 44.892 71.7755 45.3468L53.6677 55.8808C52.8771 56.336 52.2217 56.9922 51.767 57.7839C51.3123 58.5752 51.0745 59.4739 51.0773 60.3895L51.0532 81.4154C51.0564 82.3303 51.2994 83.2297 51.7586 84.0235C52.2175 84.8173 52.8764 85.478 53.6688 85.9388L71.7524 96.4307C72.5458 96.8897 73.4443 97.1329 74.3579 97.1354C75.2717 97.1382 76.1685 96.8999 76.9581 96.4451L95.0661 85.9111C95.8568 85.4559 96.5122 84.7997 96.9669 84.0084C97.4215 83.217 97.6594 82.3183 97.6562 81.4028L97.6807 60.3765C97.6775 59.462 97.4345 58.5626 96.9753 57.7684C96.5161 56.9746 95.8575 56.3142 95.0651 55.8534Z" stroke="#737373" stroke-width="2" stroke-linecap="round" stroke-linejoin="round"/>
<path d="M69.9247 12.1968L51.8407 1.70482C51.0477 1.24563 50.1492 1.00258 49.2353 1.00002C48.3218 0.997459 47.425 1.23549 46.6351 1.69022L28.5274 12.2243C27.7367 12.6795 27.0809 13.3357 26.6263 14.1272C26.1716 14.9186 25.9338 15.8172 25.9369 16.7328L25.9128 37.759C25.9156 38.6736 26.159 39.573 26.6182 40.3668C27.0771 41.1609 27.736 41.8213 28.528 42.2821L46.6121 52.774C47.4051 53.2334 48.3036 53.4762 49.2175 53.479C50.1314 53.4815 51.0278 53.2435 51.8177 52.7887L69.9258 42.2547C70.716 41.7996 71.3718 41.143 71.8265 40.3517C72.2812 39.5603 72.519 38.6616 72.5158 37.7461L72.5399 16.72C72.5371 15.8053 72.2937 14.9059 71.8349 14.112C71.3757 13.3181 70.7171 12.6576 69.9247 12.1968Z" stroke="#737373" stroke-width="2" stroke-linecap="round" stroke-linejoin="round"/>
<path d="M45.0119 55.8703L26.9283 45.3784C26.1349 44.919 25.2364 44.6762 24.3225 44.6734C23.4089 44.6709 22.5122 44.9088 21.7224 45.3636L3.61447 55.8976C2.82391 56.3528 2.16834 57.009 1.71364 57.8007C1.25894 58.592 1.02116 59.4907 1.02417 60.4063L1 81.4322C1.00304 82.3471 1.24626 83.2465 1.70533 84.0403C2.16439 84.8341 2.82314 85.4949 3.61545 85.9556L21.6992 96.4476C22.4925 96.9066 23.391 97.1498 24.3047 97.1522C25.2185 97.1547 26.1153 96.9167 26.9049 96.4619L45.013 85.9279C45.8036 85.4728 46.459 84.8165 46.9137 84.0252C47.3684 83.2339 47.6062 82.3352 47.603 81.4196L47.6275 60.3933C47.6243 59.4788 47.3809 58.5794 46.9221 57.7853C46.4629 56.9915 45.8043 56.331 45.0119 55.8703Z" stroke="#737373" stroke-width="2" stroke-linecap="round" stroke-linejoin="round"/>
<path d="M24.105 92.9577L24.142 71.9023" stroke="#737373"/>
<path d="M22.5468 69.6939L4.28735 59.0701" stroke="#737373"/>
<path d="M43.7977 59.198L25.5394 69.8208" stroke="#737373"/>
<path d="M73.6921 92.9577L73.7292 71.9023" stroke="#737373"/>
<path d="M72.134 69.6939L53.8744 59.0701" stroke="#737373"/>
<path d="M93.385 59.198L75.1267 69.8208" stroke="#737373"/>
<path d="M49.2478 49.0921L49.2848 28.0366" stroke="#737373"/>
<path d="M47.6896 25.8284L29.4299 15.2046" stroke="#737373"/>
<path d="M68.9406 15.3325L50.6824 25.9555" stroke="#737373"/>
<path d="M17.4022 74.8865L13.1345 72.0843C12.2897 71.54 11.3506 71.22 10.5238 71.1947C9.69695 71.1698 9.05007 71.4411 8.72556 71.9499C8.401 72.4584 8.42534 73.1627 8.79323 73.907C9.16109 74.6517 9.84235 75.3756 10.6872 75.9203L15.2376 78.8523C16.0824 79.3965 16.7636 80.1205 17.1315 80.8651C17.4994 81.6098 17.5237 82.3138 17.1992 82.8223C16.8746 83.3311 16.2278 83.6027 15.401 83.5774C14.5741 83.5522 13.635 83.2321 12.7902 82.6879L7.48657 79.1095" stroke="#14A52B" stroke-opacity="0.71" stroke-width="2" stroke-linecap="round" stroke-linejoin="round"/>
<path d="M12.9304 69.031L12.6414 85.6753" stroke="#14A52B" stroke-opacity="0.71" stroke-width="2" stroke-linecap="round" stroke-linejoin="round"/>
<path d="M30.1168 21.2743C30.1168 19.9343 31.551 19.0888 32.7149 19.7427L42.5779 25.2841C43.1299 25.5943 43.4718 26.1801 43.4718 26.8157V44.891C43.4718 46.2357 42.0282 47.0807 40.8643 46.4172L31.0013 40.7947C30.4548 40.483 30.1168 39.9002 30.1168 39.2685V28.1058H29.7676H30.1168V21.2743Z" stroke="#3757A8" stroke-opacity="0.8" stroke-width="2"/>
<path d="M34.6642 23.462L33.2702 22.5468C32.9943 22.369 32.6877 22.2645 32.4174 22.2563C32.1475 22.248 31.9362 22.3368 31.83 22.5029C31.7242 22.669 31.7323 22.899 31.8524 23.1422C31.9725 23.3854 32.195 23.6219 32.4708 23.7997L33.9571 24.7574C34.2333 24.9352 34.4557 25.1717 34.5758 25.4149C34.696 25.6581 34.704 25.8881 34.5978 26.0542C34.492 26.2204 34.2808 26.3091 34.0105 26.3008C33.7405 26.2926 33.4336 26.1881 33.1577 26.0103L31.4257 24.8415" stroke="#3757A8" stroke-linecap="round" stroke-linejoin="round"/>
<path d="M33.2034 21.5496L33.1091 26.9861" stroke="#3757A8" stroke-linecap="round" stroke-linejoin="round"/>
<path d="M36.0757 31.9266L31.2637 29.4407" stroke="#3757A8" stroke-opacity="0.8" stroke-linecap="round" stroke-linejoin="round"/>
<path d="M40.6004 36.1322L31.2836 31.3186" stroke="#3757A8" stroke-opacity="0.8" stroke-linecap="round" stroke-linejoin="round"/>
<path d="M40.6004 38.5888L31.2836 33.7751" stroke="#3757A8" stroke-opacity="0.8" stroke-linecap="round" stroke-linejoin="round"/>
<path d="M40.6004 41.0451L31.2836 36.2314" stroke="#3757A8" stroke-opacity="0.8" stroke-linecap="round" stroke-linejoin="round"/>
<path d="M63.3523 85.2758C66.6321 84.8108 68.8303 81.157 68.2628 77.1154C67.6954 73.0735 64.5766 70.1738 61.2972 70.6388C58.0175 71.1038 55.8189 74.7572 56.3867 78.7992C56.9541 82.8411 60.0729 85.7408 63.3523 85.2758Z" stroke="#A4733B" stroke-opacity="0.72" stroke-width="2" stroke-linecap="round" stroke-linejoin="round"/>
<path d="M61.3879 73.6572V78.2245L64.6129 79.7984" stroke="#A4733B" stroke-opacity="0.72" stroke-width="2" stroke-linecap="round" stroke-linejoin="round"/>
</svg>
