<svg width="32" height="32" viewBox="0 0 32 32" fill="none" xmlns="http://www.w3.org/2000/svg">
<path fill-rule="evenodd" clip-rule="evenodd" d="M22.2271 17.5066C24.0537 18.7466 25.3337 20.4266 25.3337 22.6666V26.6666H30.6671V22.6666C30.6671 19.7599 25.9071 18.0399 22.2271 17.5066Z" fill="#A7A9B0"/>
<path d="M12.0003 15.9999C14.9458 15.9999 17.3337 13.6121 17.3337 10.6666C17.3337 7.72107 14.9458 5.33325 12.0003 5.33325C9.05481 5.33325 6.66699 7.72107 6.66699 10.6666C6.66699 13.6121 9.05481 15.9999 12.0003 15.9999Z" fill="#A7A9B0"/>
<path fill-rule="evenodd" clip-rule="evenodd" d="M20.0004 15.9999C22.9471 15.9999 25.3337 13.6133 25.3337 10.6666C25.3337 7.71992 22.9471 5.33325 20.0004 5.33325C19.3737 5.33325 18.7871 5.46658 18.2271 5.65325C19.3337 7.02658 20.0004 8.77325 20.0004 10.6666C20.0004 12.5599 19.3337 14.3066 18.2271 15.6799C18.7871 15.8666 19.3737 15.9999 20.0004 15.9999Z" fill="#A7A9B0"/>
<path fill-rule="evenodd" clip-rule="evenodd" d="M12.0002 17.3333C8.44016 17.3333 1.3335 19.1199 1.3335 22.6666V26.6666H22.6668V22.6666C22.6668 19.1199 15.5602 17.3333 12.0002 17.3333Z" fill="#A7A9B0"/>
</svg>
