<svg width="30" height="22" viewBox="0 0 30 22" fill="none" xmlns="http://www.w3.org/2000/svg">
<path fill-rule="evenodd" clip-rule="evenodd" d="M21.2271 12.5066C23.0537 13.7466 24.3337 15.4266 24.3337 17.6666V21.6666H29.6671V17.6666C29.6671 14.7599 24.9071 13.0399 21.2271 12.5066Z" fill="#A7A9B0"/>
<path d="M11.0003 10.9999C13.9458 10.9999 16.3337 8.6121 16.3337 5.66658C16.3337 2.72107 13.9458 0.333252 11.0003 0.333252C8.05481 0.333252 5.66699 2.72107 5.66699 5.66658C5.66699 8.6121 8.05481 10.9999 11.0003 10.9999Z" fill="#A7A9B0"/>
<path fill-rule="evenodd" clip-rule="evenodd" d="M19.0004 10.9999C21.9471 10.9999 24.3337 8.61325 24.3337 5.66658C24.3337 2.71992 21.9471 0.333252 19.0004 0.333252C18.3737 0.333252 17.7871 0.466585 17.2271 0.653252C18.3337 2.02658 19.0004 3.77325 19.0004 5.66658C19.0004 7.55992 18.3337 9.30659 17.2271 10.6799C17.7871 10.8666 18.3737 10.9999 19.0004 10.9999Z" fill="#A7A9B0"/>
<path fill-rule="evenodd" clip-rule="evenodd" d="M11.0002 12.3333C7.44016 12.3333 0.333496 14.1199 0.333496 17.6666V21.6666H21.6668V17.6666C21.6668 14.1199 14.5602 12.3333 11.0002 12.3333Z" fill="#A7A9B0"/>
</svg>
