<svg width="20" height="24" viewBox="0 0 20 24" fill="none" xmlns="http://www.w3.org/2000/svg">
<path d="M17.7778 0H2.22222C0.988889 0 0 1 0 2.22222V17.7778C0 19 0.988889 20 2.22222 20H6.66667L10 23.3333L13.3333 20H17.7778C19 20 20 19 20 17.7778V2.22222C20 1 19 0 17.7778 0ZM11.1111 17.7778H8.88889V15.5556H11.1111V17.7778ZM13.4111 9.16667L12.4111 10.1889C11.6111 11 11.1111 11.6667 11.1111 13.3333H8.88889V12.7778C8.88889 11.5556 9.38889 10.4444 10.1889 9.63333L11.5667 8.23333C11.9778 7.83333 12.2222 7.27778 12.2222 6.66667C12.2222 5.44444 11.2222 4.44444 10 4.44444C8.77778 4.44444 7.77778 5.44444 7.77778 6.66667H5.55556C5.55556 4.21111 7.54444 2.22222 10 2.22222C12.4556 2.22222 14.4444 4.21111 14.4444 6.66667C14.4444 7.64444 14.0444 8.53333 13.4111 9.16667Z" fill="#3167C0"/>
</svg>
