<svg width="70" height="60" viewBox="0 0 70 60" fill="none" xmlns="http://www.w3.org/2000/svg">
<path d="M33.3333 50C33.3333 37.1 43.7667 26.6667 56.6667 26.6667C60.2667 26.6667 63.6333 27.5 66.6667 28.9333V6.66667C66.6667 3 63.6667 0 60 0H6.66667C3 0 0 3 0 6.66667V46.6667C0 50.3333 3 53.3333 6.66667 53.3333H33.6C33.4333 52.2333 33.3333 51.1333 33.3333 50ZM6.66667 6.66667L33.3333 23.3333L60 6.66667V13.3333L33.3333 30L6.66667 13.3333V6.66667ZM51.1333 60L39.3333 48.2L44.0333 43.5L51.1 50.5667L65.2333 36.4333L70 41.1333L51.1333 60Z" fill="#34CB79"/>
</svg>
